<mxfile host="app.diagrams.net" agent="Mozilla/5.0 (Windows NT 10.0; Win64; x64) AppleWebKit/537.36 (KHTML, like Gecko) Chrome/138.0.0.0 Safari/537.36" version="27.2.0">
  <diagram name="Página-1" id="iQFxSx_RsvshINyltlSq">
    <mxGraphModel dx="872" dy="431" grid="1" gridSize="10" guides="1" tooltips="1" connect="1" arrows="1" fold="1" page="1" pageScale="1" pageWidth="827" pageHeight="1169" math="0" shadow="0">
      <root>
        <mxCell id="0" />
        <mxCell id="1" parent="0" />
        <mxCell id="Si469c6dEhJ6U29dv7Ru-11" style="edgeStyle=orthogonalEdgeStyle;rounded=0;orthogonalLoop=1;jettySize=auto;html=1;exitX=1;exitY=0.5;exitDx=0;exitDy=0;entryX=0;entryY=0.5;entryDx=0;entryDy=0;endArrow=none;endFill=0;" edge="1" parent="1" source="Si469c6dEhJ6U29dv7Ru-4" target="Si469c6dEhJ6U29dv7Ru-9">
          <mxGeometry relative="1" as="geometry" />
        </mxCell>
        <mxCell id="Si469c6dEhJ6U29dv7Ru-4" value="&lt;p style=&quot;margin:0px;margin-top:4px;text-align:center;text-decoration:underline;&quot;&gt;&lt;b&gt;Usuario&lt;/b&gt;&lt;/p&gt;&lt;hr size=&quot;1&quot; style=&quot;border-style:solid;&quot;&gt;&lt;p style=&quot;margin:0px;margin-left:8px;&quot;&gt;id INT (PK)&lt;br&gt;nombre VARCHAR(100)&lt;br&gt;contraseña VARCHAR(255)&lt;/p&gt;" style="verticalAlign=top;align=left;overflow=fill;html=1;whiteSpace=wrap;" vertex="1" parent="1">
          <mxGeometry x="10" y="100" width="160" height="90" as="geometry" />
        </mxCell>
        <mxCell id="Si469c6dEhJ6U29dv7Ru-5" value="&lt;p style=&quot;margin:0px;margin-top:4px;text-align:center;text-decoration:underline;&quot;&gt;&lt;b&gt;cards&lt;/b&gt;&lt;/p&gt;&lt;hr size=&quot;1&quot; style=&quot;border-style:solid;&quot;&gt;&lt;p style=&quot;margin:0px;margin-left:8px;&quot;&gt;id INT (PK)&lt;br&gt;cards_id INT (FK)&lt;br&gt;title VARCHAR(255)&lt;/p&gt;&lt;p style=&quot;margin:0px;margin-left:8px;&quot;&gt;INFO TEXT&lt;/p&gt;&lt;p style=&quot;margin:0px;margin-left:8px;&quot;&gt;imagenURL VARCHAR(255)&lt;/p&gt;&lt;p style=&quot;margin:0px;margin-left:8px;&quot;&gt;date DATE&lt;/p&gt;&lt;p style=&quot;margin:0px;margin-left:8px;&quot;&gt;&lt;br&gt;&lt;/p&gt;&lt;p style=&quot;margin:0px;margin-left:8px;&quot;&gt;&lt;br&gt;&lt;/p&gt;" style="verticalAlign=top;align=left;overflow=fill;html=1;whiteSpace=wrap;" vertex="1" parent="1">
          <mxGeometry x="290" y="80" width="166" height="150" as="geometry" />
        </mxCell>
        <mxCell id="Si469c6dEhJ6U29dv7Ru-6" value="&lt;p style=&quot;margin:0px;margin-top:4px;text-align:center;text-decoration:underline;&quot;&gt;&lt;b&gt;Tabla&lt;/b&gt;&lt;/p&gt;&lt;hr size=&quot;1&quot; style=&quot;border-style:solid;&quot;&gt;&lt;p style=&quot;margin:0px;margin-left:8px;&quot;&gt;id INT (PK)&lt;br&gt;cards_id INT (FK)&lt;br&gt;&lt;/p&gt;&lt;p style=&quot;margin:0px;margin-left:8px;&quot;&gt;datos TEXT&lt;/p&gt;&lt;p style=&quot;margin:0px;margin-left:8px;&quot;&gt;fecha_guardado DATE&lt;/p&gt;" style="verticalAlign=top;align=left;overflow=fill;html=1;whiteSpace=wrap;" vertex="1" parent="1">
          <mxGeometry x="590" y="95" width="160" height="120" as="geometry" />
        </mxCell>
        <mxCell id="Si469c6dEhJ6U29dv7Ru-9" value="tiene" style="rhombus;whiteSpace=wrap;html=1;" vertex="1" parent="1">
          <mxGeometry x="190" y="105" width="80" height="80" as="geometry" />
        </mxCell>
        <mxCell id="Si469c6dEhJ6U29dv7Ru-10" value="tiene" style="rhombus;whiteSpace=wrap;html=1;" vertex="1" parent="1">
          <mxGeometry x="480" y="115" width="80" height="80" as="geometry" />
        </mxCell>
        <mxCell id="Si469c6dEhJ6U29dv7Ru-13" style="edgeStyle=orthogonalEdgeStyle;rounded=0;orthogonalLoop=1;jettySize=auto;html=1;entryX=1;entryY=0.5;entryDx=0;entryDy=0;endArrow=none;endFill=0;exitX=-0.006;exitY=0.42;exitDx=0;exitDy=0;exitPerimeter=0;" edge="1" parent="1" source="Si469c6dEhJ6U29dv7Ru-5" target="Si469c6dEhJ6U29dv7Ru-9">
          <mxGeometry relative="1" as="geometry">
            <mxPoint x="300" y="201" as="sourcePoint" />
            <mxPoint x="320" y="325" as="targetPoint" />
          </mxGeometry>
        </mxCell>
        <mxCell id="Si469c6dEhJ6U29dv7Ru-14" style="edgeStyle=orthogonalEdgeStyle;rounded=0;orthogonalLoop=1;jettySize=auto;html=1;entryX=0;entryY=0.5;entryDx=0;entryDy=0;endArrow=none;endFill=0;exitX=1;exitY=0.5;exitDx=0;exitDy=0;" edge="1" parent="1" source="Si469c6dEhJ6U29dv7Ru-5" target="Si469c6dEhJ6U29dv7Ru-10">
          <mxGeometry relative="1" as="geometry">
            <mxPoint x="409" y="290" as="sourcePoint" />
            <mxPoint x="350" y="427" as="targetPoint" />
          </mxGeometry>
        </mxCell>
        <mxCell id="Si469c6dEhJ6U29dv7Ru-15" style="edgeStyle=orthogonalEdgeStyle;rounded=0;orthogonalLoop=1;jettySize=auto;html=1;entryX=1;entryY=0.5;entryDx=0;entryDy=0;endArrow=none;endFill=0;exitX=0;exitY=0.5;exitDx=0;exitDy=0;" edge="1" parent="1" source="Si469c6dEhJ6U29dv7Ru-6" target="Si469c6dEhJ6U29dv7Ru-10">
          <mxGeometry relative="1" as="geometry">
            <mxPoint x="576" y="300" as="sourcePoint" />
            <mxPoint x="550" y="455" as="targetPoint" />
          </mxGeometry>
        </mxCell>
        <mxCell id="Si469c6dEhJ6U29dv7Ru-16" value="1" style="text;html=1;align=center;verticalAlign=middle;resizable=0;points=[];autosize=1;strokeColor=none;fillColor=none;" vertex="1" parent="1">
          <mxGeometry x="160" y="120" width="30" height="30" as="geometry" />
        </mxCell>
        <mxCell id="Si469c6dEhJ6U29dv7Ru-18" value="N" style="text;html=1;align=center;verticalAlign=middle;resizable=0;points=[];autosize=1;strokeColor=none;fillColor=none;" vertex="1" parent="1">
          <mxGeometry x="260" y="115" width="30" height="30" as="geometry" />
        </mxCell>
        <mxCell id="Si469c6dEhJ6U29dv7Ru-19" value="1" style="text;html=1;align=center;verticalAlign=middle;resizable=0;points=[];autosize=1;strokeColor=none;fillColor=none;" vertex="1" parent="1">
          <mxGeometry x="456" y="120" width="30" height="30" as="geometry" />
        </mxCell>
        <mxCell id="Si469c6dEhJ6U29dv7Ru-20" value="1" style="text;html=1;align=center;verticalAlign=middle;resizable=0;points=[];autosize=1;strokeColor=none;fillColor=none;" vertex="1" parent="1">
          <mxGeometry x="560" y="120" width="30" height="30" as="geometry" />
        </mxCell>
      </root>
    </mxGraphModel>
  </diagram>
</mxfile>
